<svg xmlns:dc="http://purl.org/dc/elements/1.1/" xmlns:cc="http://creativecommons.org/ns#" xmlns:rdf="http://www.w3.org/1999/02/22-rdf-syntax-ns#" xmlns:svg="http://www.w3.org/2000/svg" xmlns="http://www.w3.org/2000/svg" xmlns:sodipodi="http://sodipodi.sourceforge.net/DTD/sodipodi-0.dtd" xmlns:inkscape="http://www.inkscape.org/namespaces/inkscape" version="1.1" viewBox="0 0 100 125" x="0px" y="0px"><path style="color:#000000;font-style:normal;font-variant:normal;font-weight:normal;font-stretch:normal;font-size:medium;line-height:normal;font-family:sans-serif;font-variant-ligatures:normal;font-variant-position:normal;font-variant-caps:normal;font-variant-numeric:normal;font-variant-alternates:normal;font-variant-east-asian:normal;font-feature-settings:normal;font-variation-settings:normal;text-indent:0;text-align:start;text-decoration:none;text-decoration-line:none;text-decoration-style:solid;text-decoration-color:#000000;letter-spacing:normal;word-spacing:normal;text-transform:none;writing-mode:lr-tb;direction:ltr;text-orientation:mixed;dominant-baseline:auto;baseline-shift:baseline;text-anchor:start;white-space:normal;shape-padding:0;shape-margin:0;inline-size:0;clip-rule:nonzero;display:inline;overflow:visible;visibility:visible;opacity:1;isolation:auto;mix-blend-mode:normal;color-interpolation:sRGB;color-interpolation-filters:linearRGB;solid-color:#000000;solid-opacity:1;vector-effect:none;fill:#000000;fill-opacity:1;fill-rule:nonzero;stroke:none;stroke-width:4.64655;stroke-linecap:round;stroke-linejoin:round;stroke-miterlimit:4;stroke-dasharray:none;stroke-dashoffset:0;stroke-opacity:1;paint-order:stroke fill markers;color-rendering:auto;image-rendering:auto;shape-rendering:auto;text-rendering:auto;enable-background:accumulate;stop-color:#000000;stop-opacity:1" d="M 47.316301,7.6836994 C 23.972886,7.6836992 4.9999998,26.656586 5,50.000001 c 0,23.343415 18.972886,42.3163 42.316301,42.3163 4.296293,0 8.442313,-0.646156 12.351481,-1.840469 -1.412822,-1.092311 -2.670669,-2.371528 -3.739023,-3.80255 -2.766511,0.64532 -5.647011,0.996467 -8.612458,0.996467 -20.832232,0 -37.6697484,-16.837516 -37.6697483,-37.669748 -2e-7,-20.832232 16.8375163,-37.669749 37.6697483,-37.669749 18.968689,0 34.607689,13.965405 37.255915,32.190084 l -2.508413,-5.913465 a 2.3232764,2.3232764 0 0 0 -2.139955,-1.415746 2.3232764,2.3232764 0 0 0 -0.905715,0.185136 2.3232764,2.3232764 0 0 0 -1.232426,3.04567 l 6.505174,15.340884 a 2.3232764,2.3232764 0 0 0 0.121609,0.243219 2.3232764,2.3232764 0 0 0 0.0054,0.0073 2.3232764,2.3232764 0 0 0 0.279519,0.390238 2.3232764,2.3232764 0 0 0 0.03086,0.03267 2.3232764,2.3232764 0 0 0 0.05264,0.05445 2.3232764,2.3232764 0 0 0 0.02723,0.02723 2.3232764,2.3232764 0 0 0 0.0599,0.05627 2.3232764,2.3232764 0 0 0 0.06534,0.05627 2.3232764,2.3232764 0 0 0 0.02178,0.01815 2.3232764,2.3232764 0 0 0 0.04356,0.03449 2.3232764,2.3232764 0 0 0 0.04719,0.03812 2.3232764,2.3232764 0 0 0 0.0236,0.01633 2.3232764,2.3232764 0 0 0 0.09438,0.06534 2.3232764,2.3232764 0 0 0 0.04175,0.02541 2.3232764,2.3232764 0 0 0 0.06171,0.03812 2.3232764,2.3232764 0 0 0 0.04356,0.0236 2.3232764,2.3232764 0 0 0 0.07079,0.03812 2.3232764,2.3232764 0 0 0 0.01815,0.0073 2.3232764,2.3232764 0 0 0 0.09075,0.04356 2.3232764,2.3232764 0 0 0 0.06716,0.02904 2.3232764,2.3232764 0 0 0 0.02904,0.01089 2.3232764,2.3232764 0 0 0 0.114349,0.03993 2.3232764,2.3232764 0 0 0 0.0018,0.0018 2.3232764,2.3232764 0 0 0 0.08894,0.02723 2.3232764,2.3232764 0 0 0 0.210546,0.04901 2.3232764,2.3232764 0 0 0 0.03993,0.0091 2.3232764,2.3232764 0 0 0 0.09075,0.01271 2.3232764,2.3232764 0 0 0 0.02178,0.0036 2.3232764,2.3232764 0 0 0 0.245033,0.01633 2.3232764,2.3232764 0 0 0 0.03086,0 2.3232764,2.3232764 0 0 0 0.03086,0 2.3232764,2.3232764 0 0 0 0.08531,-0.0036 2.3232764,2.3232764 0 0 0 0.0073,0 2.3232764,2.3232764 0 0 0 0.02541,-0.0018 2.3232764,2.3232764 0 0 0 0.06716,-0.0054 2.3232764,2.3232764 0 0 0 0.154279,-0.01997 2.3232764,2.3232764 0 0 0 0.09075,-0.01633 2.3232764,2.3232764 0 0 0 0.0036,0 2.3232764,2.3232764 0 0 0 0.06897,-0.01634 2.3232764,2.3232764 0 0 0 0.07805,-0.01997 2.3232764,2.3232764 0 0 0 0.08894,-0.02541 2.3232764,2.3232764 0 0 0 0.08712,-0.03086 2.3232764,2.3232764 0 0 0 0.02904,-0.0091 2.3232764,2.3232764 0 0 0 0.08894,-0.0363 2.3232764,2.3232764 0 0 0 0.06171,-0.02723 2.3232764,2.3232764 0 0 0 0.05082,-0.0236 2.3232764,2.3232764 0 0 0 0.108903,-0.05808 2.3232764,2.3232764 0 0 0 0.107089,-0.06171 2.3232764,2.3232764 0 0 0 0.06353,-0.04356 2.3232764,2.3232764 0 0 0 0.03993,-0.02541 2.3232764,2.3232764 0 0 0 0.09801,-0.07442 2.3232764,2.3232764 0 0 0 0.197841,-0.174245 2.3232764,2.3232764 0 0 0 0.130684,-0.141575 2.3232764,2.3232764 0 0 0 0.02541,-0.02904 2.3232764,2.3232764 0 0 0 0.04356,-0.05445 2.3232764,2.3232764 0 0 0 0.03267,-0.04175 2.3232764,2.3232764 0 0 0 0.04175,-0.06171 2.3232764,2.3232764 0 0 0 0.02904,-0.03993 2.3232764,2.3232764 0 0 0 0.01452,-0.0236 2.3232764,2.3232764 0 0 0 0.05082,-0.08168 2.3232764,2.3232764 0 0 0 0.0018,-0.0018 2.3232764,2.3232764 0 0 0 0.0127,-0.02178 2.3232764,2.3232764 0 0 0 0.04538,-0.08349 2.3232764,2.3232764 0 0 0 0.01271,-0.02541 2.3232764,2.3232764 0 0 0 0.07805,-0.17243 l 6.247493,-15.448121 a 2.3232764,2.3232764 0 0 0 -1.28325,-3.023889 2.3232764,2.3232764 0 0 0 -0.842188,-0.170616 2.3232764,2.3232764 0 0 0 -2.181702,1.452047 l -1.584548,3.918714 C 85.372243,22.704903 68.082599,7.6836993 47.316301,7.6836994 Z m 0,10.3712516 a 2.1285671,2.1285671 0 0 0 -2.129066,2.129065 v 24.681181 a 5.5592685,5.5592685 0 0 0 -3.430462,5.134804 5.5592685,5.5592685 0 0 0 5.559528,5.559528 5.5592685,5.5592685 0 0 0 5.049496,-3.236252 h 20.493838 a 2.3232764,2.3232764 0 0 0 2.323277,-2.323276 2.3232764,2.3232764 0 0 0 -2.323277,-2.323277 H 52.365797 A 5.5592685,5.5592685 0 0 0 49.445366,44.865197 V 20.184016 A 2.1285671,2.1285671 0 0 0 47.316301,18.054951 Z M 74.20278,56.383566 c -9.84353,0 -17.862002,8.01847 -17.862002,17.862002 0,9.843536 8.018472,17.863817 17.862002,17.863817 9.843539,0 17.858371,-8.020281 17.858372,-17.863817 0,-9.843532 -8.014833,-17.862002 -17.858372,-17.862002 z m 6.439831,7.652291 c 0.0091,-5.3e-5 0.01803,-5.3e-5 0.02723,0 0.431727,0.0051 0.852426,0.129531 1.217905,0.359382 1.091944,0.690324 1.418671,2.134407 0.729654,3.227176 l -9.937451,15.751087 c -0.923535,1.460027 -3.056235,1.451363 -3.96772,-0.01633 -3.83e-4,-5.72e-4 -0.005,-0.01045 -0.0054,-0.01089 -0.01783,-0.02647 -0.09625,-0.136328 -0.266814,-0.370271 -0.350142,-0.480198 -1.077937,-1.46583 -2.546529,-3.395977 -0.779843,-1.028442 -0.581813,-2.493785 0.44469,-3.276182 1.027022,-0.78105 2.493948,-0.58367 3.277998,0.441059 0.526283,0.691691 0.572462,0.760844 0.929311,1.234241 l 8.109686,-12.854253 c 0.430881,-0.680371 1.182163,-1.092034 1.98749,-1.089036 z m -12.17542,18.771347 c 5.9e-4,0.0036 0.0057,0.03813 0.0054,0.03812 -2.8e-5,-8.8e-5 0.02146,0.05216 0.03267,0.08168 -0.01366,-0.03956 -0.02648,-0.07955 -0.03812,-0.119794 z"/><g style="opacity:1"><path style="color:#000000;font-variant-ligatures:normal;font-variant-position:normal;font-variant-caps:normal;font-variant-numeric:normal;font-variant-alternates:normal;font-variant-east-asian:normal;font-feature-settings:normal;font-variation-settings:normal;text-indent:0;text-decoration-line:none;text-decoration-style:solid;text-decoration-color:#000000;text-transform:none;direction:ltr;text-orientation:mixed;dominant-baseline:auto;baseline-shift:baseline;white-space:normal;shape-padding:0;shape-margin:0;inline-size:0;isolation:auto;mix-blend-mode:normal;color-interpolation:sRGB;color-interpolation-filters:linearRGB;solid-color:#000000;solid-opacity:1;vector-effect:none;paint-order:stroke fill markers;color-rendering:auto;image-rendering:auto;shape-rendering:auto;enable-background:accumulate;" d="M 50,17.916114 V 46.321711" clip-rule="nonzero" display="inline" overflow="visible" visibility="visible" fill="#000000" fill-opacity="1" fill-rule="nonzero" stroke="none" stop-color="#000000" stop-opacity="1"/></g><g style="opacity:1"><path style="color:#000000;font-variant-ligatures:normal;font-variant-position:normal;font-variant-caps:normal;font-variant-numeric:normal;font-variant-alternates:normal;font-variant-east-asian:normal;font-feature-settings:normal;font-variation-settings:normal;text-indent:0;text-decoration-line:none;text-decoration-style:solid;text-decoration-color:#000000;text-transform:none;direction:ltr;text-orientation:mixed;dominant-baseline:auto;baseline-shift:baseline;white-space:normal;shape-padding:0;shape-margin:0;inline-size:0;isolation:auto;mix-blend-mode:normal;color-interpolation:sRGB;color-interpolation-filters:linearRGB;solid-color:#000000;solid-opacity:1;vector-effect:none;paint-order:stroke fill markers;color-rendering:auto;image-rendering:auto;shape-rendering:auto;enable-background:accumulate;" d="M 50.714286,50 H 77.485879" clip-rule="nonzero" display="inline" overflow="visible" visibility="visible" fill="#000000" fill-opacity="1" fill-rule="nonzero" stroke="none" stop-color="#000000" stop-opacity="1"/></g><text x="0" y="115" fill="#000000" font-size="5px" font-weight="bold" font-family="'Helvetica Neue', Helvetica, Arial-Unicode, Arial, Sans-serif">Created by David Christensen</text><text x="0" y="120" fill="#000000" font-size="5px" font-weight="bold" font-family="'Helvetica Neue', Helvetica, Arial-Unicode, Arial, Sans-serif">from the Noun Project</text></svg>